<svg xmlns="http://www.w3.org/2000/svg" version="1.1" xmlns:xlink="http://www.w3.org/1999/xlink" xmlns:svgjs="http://svgjs.dev/svgjs" viewBox="0 0 800 800" opacity="0.39" width="800" height="800"><g stroke-width="1.75" stroke="hsla(261, 12%, 63%, 1.00)" fill="none"><circle r="4.473684210526316" cx="0" cy="0" fill="hsla(261, 12%, 63%, 1.00)" stroke="none"></circle><circle r="4.473684210526316" cx="47.05882352941177" cy="0" fill="hsla(261, 12%, 63%, 1.00)" stroke="none"></circle><circle r="4.473684210526316" cx="94.11764705882354" cy="0" fill="hsla(261, 12%, 63%, 1.00)" stroke="none"></circle><circle r="4.473684210526316" cx="141.1764705882353" cy="0" fill="hsla(261, 12%, 63%, 1.00)" stroke="none"></circle><circle r="4.473684210526316" cx="188.23529411764707" cy="0" fill="hsla(261, 12%, 63%, 1.00)" stroke="none"></circle><circle r="4.473684210526316" cx="235.29411764705884" cy="0" fill="hsla(261, 12%, 63%, 1.00)" stroke="none"></circle><circle r="4.473684210526316" cx="282.3529411764706" cy="0" fill="hsla(261, 12%, 63%, 1.00)" stroke="none"></circle><circle r="4.473684210526316" cx="329.4117647058824" cy="0" fill="hsla(261, 12%, 63%, 1.00)" stroke="none"></circle><circle r="4.473684210526316" cx="376.47058823529414" cy="0" fill="hsla(261, 12%, 63%, 1.00)" stroke="none"></circle><circle r="4.473684210526316" cx="423.5294117647059" cy="0" fill="hsla(261, 12%, 63%, 1.00)" stroke="none"></circle><circle r="4.473684210526316" cx="470.5882352941177" cy="0" fill="hsla(261, 12%, 63%, 1.00)" stroke="none"></circle><circle r="4.473684210526316" cx="517.6470588235295" cy="0" fill="hsla(261, 12%, 63%, 1.00)" stroke="none"></circle><circle r="4.473684210526316" cx="564.7058823529412" cy="0" fill="hsla(261, 12%, 63%, 1.00)" stroke="none"></circle><circle r="4.473684210526316" cx="611.7647058823529" cy="0" fill="hsla(261, 12%, 63%, 1.00)" stroke="none"></circle><circle r="4.473684210526316" cx="658.8235294117646" cy="0" fill="hsla(261, 12%, 63%, 1.00)" stroke="none"></circle><circle r="4.473684210526316" cx="705.8823529411764" cy="0" fill="hsla(261, 12%, 63%, 1.00)" stroke="none"></circle><circle r="4.473684210526316" cx="752.9411764705881" cy="0" fill="hsla(261, 12%, 63%, 1.00)" stroke="none"></circle><circle r="4.473684210526316" cx="799.9999999999998" cy="0" fill="hsla(261, 12%, 63%, 1.00)" stroke="none"></circle><circle r="4.473684210526316" cx="0" cy="47.05882352941177" fill="hsla(261, 12%, 63%, 1.00)" stroke="none"></circle><circle r="4.473684210526316" cx="47.05882352941177" cy="47.05882352941177" fill="hsla(261, 12%, 63%, 1.00)" stroke="none"></circle><circle r="4.473684210526316" cx="94.11764705882354" cy="47.05882352941177" fill="hsla(261, 12%, 63%, 1.00)" stroke="none"></circle><circle r="4.473684210526316" cx="141.1764705882353" cy="47.05882352941177" fill="hsla(261, 12%, 63%, 1.00)" stroke="none"></circle><circle r="4.473684210526316" cx="188.23529411764707" cy="47.05882352941177" fill="hsla(261, 12%, 63%, 1.00)" stroke="none"></circle><circle r="4.473684210526316" cx="235.29411764705884" cy="47.05882352941177" fill="none"></circle><circle r="4.473684210526316" cx="282.3529411764706" cy="47.05882352941177" fill="hsla(261, 12%, 63%, 1.00)" stroke="none"></circle><circle r="4.473684210526316" cx="329.4117647058824" cy="47.05882352941177" fill="hsla(261, 12%, 63%, 1.00)" stroke="none"></circle><circle r="4.473684210526316" cx="376.47058823529414" cy="47.05882352941177" fill="none"></circle><circle r="4.473684210526316" cx="423.5294117647059" cy="47.05882352941177" fill="none"></circle><circle r="4.473684210526316" cx="470.5882352941177" cy="47.05882352941177" fill="hsla(261, 12%, 63%, 1.00)" stroke="none"></circle><circle r="4.473684210526316" cx="517.6470588235295" cy="47.05882352941177" fill="none"></circle><circle r="4.473684210526316" cx="564.7058823529412" cy="47.05882352941177" fill="hsla(261, 12%, 63%, 1.00)" stroke="none"></circle><circle r="4.473684210526316" cx="611.7647058823529" cy="47.05882352941177" fill="none"></circle><circle r="4.473684210526316" cx="658.8235294117646" cy="47.05882352941177" fill="hsla(261, 12%, 63%, 1.00)" stroke="none"></circle><circle r="4.473684210526316" cx="705.8823529411764" cy="47.05882352941177" fill="hsla(261, 12%, 63%, 1.00)" stroke="none"></circle><circle r="4.473684210526316" cx="752.9411764705881" cy="47.05882352941177" fill="hsla(261, 12%, 63%, 1.00)" stroke="none"></circle><circle r="4.473684210526316" cx="799.9999999999998" cy="47.05882352941177" fill="hsla(261, 12%, 63%, 1.00)" stroke="none"></circle><circle r="4.473684210526316" cx="0" cy="94.11764705882354" fill="hsla(261, 12%, 63%, 1.00)" stroke="none"></circle><circle r="4.473684210526316" cx="47.05882352941177" cy="94.11764705882354" fill="hsla(261, 12%, 63%, 1.00)" stroke="none"></circle><circle r="4.473684210526316" cx="94.11764705882354" cy="94.11764705882354" fill="hsla(261, 12%, 63%, 1.00)" stroke="none"></circle><circle r="4.473684210526316" cx="141.1764705882353" cy="94.11764705882354" fill="hsla(261, 12%, 63%, 1.00)" stroke="none"></circle><circle r="4.473684210526316" cx="188.23529411764707" cy="94.11764705882354" fill="none"></circle><circle r="4.473684210526316" cx="235.29411764705884" cy="94.11764705882354" fill="hsla(261, 12%, 63%, 1.00)" stroke="none"></circle><circle r="4.473684210526316" cx="282.3529411764706" cy="94.11764705882354" fill="hsla(261, 12%, 63%, 1.00)" stroke="none"></circle><circle r="4.473684210526316" cx="329.4117647058824" cy="94.11764705882354" fill="hsla(261, 12%, 63%, 1.00)" stroke="none"></circle><circle r="4.473684210526316" cx="376.47058823529414" cy="94.11764705882354" fill="hsla(261, 12%, 63%, 1.00)" stroke="none"></circle><circle r="4.473684210526316" cx="423.5294117647059" cy="94.11764705882354" fill="hsla(261, 12%, 63%, 1.00)" stroke="none"></circle><circle r="4.473684210526316" cx="470.5882352941177" cy="94.11764705882354" fill="hsla(261, 12%, 63%, 1.00)" stroke="none"></circle><circle r="4.473684210526316" cx="517.6470588235295" cy="94.11764705882354" fill="hsla(261, 12%, 63%, 1.00)" stroke="none"></circle><circle r="4.473684210526316" cx="564.7058823529412" cy="94.11764705882354" fill="hsla(261, 12%, 63%, 1.00)" stroke="none"></circle><circle r="4.473684210526316" cx="611.7647058823529" cy="94.11764705882354" fill="hsla(261, 12%, 63%, 1.00)" stroke="none"></circle><circle r="4.473684210526316" cx="658.8235294117646" cy="94.11764705882354" fill="hsla(261, 12%, 63%, 1.00)" stroke="none"></circle><circle r="4.473684210526316" cx="705.8823529411764" cy="94.11764705882354" fill="none"></circle><circle r="4.473684210526316" cx="752.9411764705881" cy="94.11764705882354" fill="hsla(261, 12%, 63%, 1.00)" stroke="none"></circle><circle r="4.473684210526316" cx="799.9999999999998" cy="94.11764705882354" fill="hsla(261, 12%, 63%, 1.00)" stroke="none"></circle><circle r="4.473684210526316" cx="0" cy="141.1764705882353" fill="hsla(261, 12%, 63%, 1.00)" stroke="none"></circle><circle r="4.473684210526316" cx="47.05882352941177" cy="141.1764705882353" fill="hsla(261, 12%, 63%, 1.00)" stroke="none"></circle><circle r="4.473684210526316" cx="94.11764705882354" cy="141.1764705882353" fill="hsla(261, 12%, 63%, 1.00)" stroke="none"></circle><circle r="4.473684210526316" cx="141.1764705882353" cy="141.1764705882353" fill="hsla(261, 12%, 63%, 1.00)" stroke="none"></circle><circle r="4.473684210526316" cx="188.23529411764707" cy="141.1764705882353" fill="hsla(261, 12%, 63%, 1.00)" stroke="none"></circle><circle r="4.473684210526316" cx="235.29411764705884" cy="141.1764705882353" fill="hsla(261, 12%, 63%, 1.00)" stroke="none"></circle><circle r="4.473684210526316" cx="282.3529411764706" cy="141.1764705882353" fill="hsla(261, 12%, 63%, 1.00)" stroke="none"></circle><circle r="4.473684210526316" cx="329.4117647058824" cy="141.1764705882353" fill="hsla(261, 12%, 63%, 1.00)" stroke="none"></circle><circle r="4.473684210526316" cx="376.47058823529414" cy="141.1764705882353" fill="hsla(261, 12%, 63%, 1.00)" stroke="none"></circle><circle r="4.473684210526316" cx="423.5294117647059" cy="141.1764705882353" fill="hsla(261, 12%, 63%, 1.00)" stroke="none"></circle><circle r="4.473684210526316" cx="470.5882352941177" cy="141.1764705882353" fill="hsla(261, 12%, 63%, 1.00)" stroke="none"></circle><circle r="4.473684210526316" cx="517.6470588235295" cy="141.1764705882353" fill="hsla(261, 12%, 63%, 1.00)" stroke="none"></circle><circle r="4.473684210526316" cx="564.7058823529412" cy="141.1764705882353" fill="none"></circle><circle r="4.473684210526316" cx="611.7647058823529" cy="141.1764705882353" fill="hsla(261, 12%, 63%, 1.00)" stroke="none"></circle><circle r="4.473684210526316" cx="658.8235294117646" cy="141.1764705882353" fill="hsla(261, 12%, 63%, 1.00)" stroke="none"></circle><circle r="4.473684210526316" cx="705.8823529411764" cy="141.1764705882353" fill="none"></circle><circle r="4.473684210526316" cx="752.9411764705881" cy="141.1764705882353" fill="hsla(261, 12%, 63%, 1.00)" stroke="none"></circle><circle r="4.473684210526316" cx="799.9999999999998" cy="141.1764705882353" fill="hsla(261, 12%, 63%, 1.00)" stroke="none"></circle><circle r="4.473684210526316" cx="0" cy="188.23529411764707" fill="hsla(261, 12%, 63%, 1.00)" stroke="none"></circle><circle r="4.473684210526316" cx="47.05882352941177" cy="188.23529411764707" fill="none"></circle><circle r="4.473684210526316" cx="94.11764705882354" cy="188.23529411764707" fill="hsla(261, 12%, 63%, 1.00)" stroke="none"></circle><circle r="4.473684210526316" cx="141.1764705882353" cy="188.23529411764707" fill="hsla(261, 12%, 63%, 1.00)" stroke="none"></circle><circle r="4.473684210526316" cx="188.23529411764707" cy="188.23529411764707" fill="none"></circle><circle r="4.473684210526316" cx="235.29411764705884" cy="188.23529411764707" fill="hsla(261, 12%, 63%, 1.00)" stroke="none"></circle><circle r="4.473684210526316" cx="282.3529411764706" cy="188.23529411764707" fill="hsla(261, 12%, 63%, 1.00)" stroke="none"></circle><circle r="4.473684210526316" cx="329.4117647058824" cy="188.23529411764707" fill="hsla(261, 12%, 63%, 1.00)" stroke="none"></circle><circle r="4.473684210526316" cx="376.47058823529414" cy="188.23529411764707" fill="hsla(261, 12%, 63%, 1.00)" stroke="none"></circle><circle r="4.473684210526316" cx="423.5294117647059" cy="188.23529411764707" fill="hsla(261, 12%, 63%, 1.00)" stroke="none"></circle><circle r="4.473684210526316" cx="470.5882352941177" cy="188.23529411764707" fill="hsla(261, 12%, 63%, 1.00)" stroke="none"></circle><circle r="4.473684210526316" cx="517.6470588235295" cy="188.23529411764707" fill="hsla(261, 12%, 63%, 1.00)" stroke="none"></circle><circle r="4.473684210526316" cx="564.7058823529412" cy="188.23529411764707" fill="hsla(261, 12%, 63%, 1.00)" stroke="none"></circle><circle r="4.473684210526316" cx="611.7647058823529" cy="188.23529411764707" fill="hsla(261, 12%, 63%, 1.00)" stroke="none"></circle><circle r="4.473684210526316" cx="658.8235294117646" cy="188.23529411764707" fill="hsla(261, 12%, 63%, 1.00)" stroke="none"></circle><circle r="4.473684210526316" cx="705.8823529411764" cy="188.23529411764707" fill="hsla(261, 12%, 63%, 1.00)" stroke="none"></circle><circle r="4.473684210526316" cx="752.9411764705881" cy="188.23529411764707" fill="hsla(261, 12%, 63%, 1.00)" stroke="none"></circle><circle r="4.473684210526316" cx="799.9999999999998" cy="188.23529411764707" fill="hsla(261, 12%, 63%, 1.00)" stroke="none"></circle><circle r="4.473684210526316" cx="0" cy="235.29411764705884" fill="hsla(261, 12%, 63%, 1.00)" stroke="none"></circle><circle r="4.473684210526316" cx="47.05882352941177" cy="235.29411764705884" fill="none"></circle><circle r="4.473684210526316" cx="94.11764705882354" cy="235.29411764705884" fill="hsla(261, 12%, 63%, 1.00)" stroke="none"></circle><circle r="4.473684210526316" cx="141.1764705882353" cy="235.29411764705884" fill="hsla(261, 12%, 63%, 1.00)" stroke="none"></circle><circle r="4.473684210526316" cx="188.23529411764707" cy="235.29411764705884" fill="hsla(261, 12%, 63%, 1.00)" stroke="none"></circle><circle r="4.473684210526316" cx="235.29411764705884" cy="235.29411764705884" fill="hsla(261, 12%, 63%, 1.00)" stroke="none"></circle><circle r="4.473684210526316" cx="282.3529411764706" cy="235.29411764705884" fill="hsla(261, 12%, 63%, 1.00)" stroke="none"></circle><circle r="4.473684210526316" cx="329.4117647058824" cy="235.29411764705884" fill="hsla(261, 12%, 63%, 1.00)" stroke="none"></circle><circle r="4.473684210526316" cx="376.47058823529414" cy="235.29411764705884" fill="none"></circle><circle r="4.473684210526316" cx="423.5294117647059" cy="235.29411764705884" fill="none"></circle><circle r="4.473684210526316" cx="470.5882352941177" cy="235.29411764705884" fill="hsla(261, 12%, 63%, 1.00)" stroke="none"></circle><circle r="4.473684210526316" cx="517.6470588235295" cy="235.29411764705884" fill="hsla(261, 12%, 63%, 1.00)" stroke="none"></circle><circle r="4.473684210526316" cx="564.7058823529412" cy="235.29411764705884" fill="hsla(261, 12%, 63%, 1.00)" stroke="none"></circle><circle r="4.473684210526316" cx="611.7647058823529" cy="235.29411764705884" fill="hsla(261, 12%, 63%, 1.00)" stroke="none"></circle><circle r="4.473684210526316" cx="658.8235294117646" cy="235.29411764705884" fill="hsla(261, 12%, 63%, 1.00)" stroke="none"></circle><circle r="4.473684210526316" cx="705.8823529411764" cy="235.29411764705884" fill="none"></circle><circle r="4.473684210526316" cx="752.9411764705881" cy="235.29411764705884" fill="hsla(261, 12%, 63%, 1.00)" stroke="none"></circle><circle r="4.473684210526316" cx="799.9999999999998" cy="235.29411764705884" fill="hsla(261, 12%, 63%, 1.00)" stroke="none"></circle><circle r="4.473684210526316" cx="0" cy="282.3529411764706" fill="hsla(261, 12%, 63%, 1.00)" stroke="none"></circle><circle r="4.473684210526316" cx="47.05882352941177" cy="282.3529411764706" fill="hsla(261, 12%, 63%, 1.00)" stroke="none"></circle><circle r="4.473684210526316" cx="94.11764705882354" cy="282.3529411764706" fill="hsla(261, 12%, 63%, 1.00)" stroke="none"></circle><circle r="4.473684210526316" cx="141.1764705882353" cy="282.3529411764706" fill="hsla(261, 12%, 63%, 1.00)" stroke="none"></circle><circle r="4.473684210526316" cx="188.23529411764707" cy="282.3529411764706" fill="hsla(261, 12%, 63%, 1.00)" stroke="none"></circle><circle r="4.473684210526316" cx="235.29411764705884" cy="282.3529411764706" fill="hsla(261, 12%, 63%, 1.00)" stroke="none"></circle><circle r="4.473684210526316" cx="282.3529411764706" cy="282.3529411764706" fill="none"></circle><circle r="4.473684210526316" cx="329.4117647058824" cy="282.3529411764706" fill="hsla(261, 12%, 63%, 1.00)" stroke="none"></circle><circle r="4.473684210526316" cx="376.47058823529414" cy="282.3529411764706" fill="hsla(261, 12%, 63%, 1.00)" stroke="none"></circle><circle r="4.473684210526316" cx="423.5294117647059" cy="282.3529411764706" fill="none"></circle><circle r="4.473684210526316" cx="470.5882352941177" cy="282.3529411764706" fill="hsla(261, 12%, 63%, 1.00)" stroke="none"></circle><circle r="4.473684210526316" cx="517.6470588235295" cy="282.3529411764706" fill="hsla(261, 12%, 63%, 1.00)" stroke="none"></circle><circle r="4.473684210526316" cx="564.7058823529412" cy="282.3529411764706" fill="hsla(261, 12%, 63%, 1.00)" stroke="none"></circle><circle r="4.473684210526316" cx="611.7647058823529" cy="282.3529411764706" fill="hsla(261, 12%, 63%, 1.00)" stroke="none"></circle><circle r="4.473684210526316" cx="658.8235294117646" cy="282.3529411764706" fill="hsla(261, 12%, 63%, 1.00)" stroke="none"></circle><circle r="4.473684210526316" cx="705.8823529411764" cy="282.3529411764706" fill="hsla(261, 12%, 63%, 1.00)" stroke="none"></circle><circle r="4.473684210526316" cx="752.9411764705881" cy="282.3529411764706" fill="hsla(261, 12%, 63%, 1.00)" stroke="none"></circle><circle r="4.473684210526316" cx="799.9999999999998" cy="282.3529411764706" fill="hsla(261, 12%, 63%, 1.00)" stroke="none"></circle><circle r="4.473684210526316" cx="0" cy="329.4117647058824" fill="hsla(261, 12%, 63%, 1.00)" stroke="none"></circle><circle r="4.473684210526316" cx="47.05882352941177" cy="329.4117647058824" fill="none"></circle><circle r="4.473684210526316" cx="94.11764705882354" cy="329.4117647058824" fill="hsla(261, 12%, 63%, 1.00)" stroke="none"></circle><circle r="4.473684210526316" cx="141.1764705882353" cy="329.4117647058824" fill="hsla(261, 12%, 63%, 1.00)" stroke="none"></circle><circle r="4.473684210526316" cx="188.23529411764707" cy="329.4117647058824" fill="hsla(261, 12%, 63%, 1.00)" stroke="none"></circle><circle r="4.473684210526316" cx="235.29411764705884" cy="329.4117647058824" fill="hsla(261, 12%, 63%, 1.00)" stroke="none"></circle><circle r="4.473684210526316" cx="282.3529411764706" cy="329.4117647058824" fill="hsla(261, 12%, 63%, 1.00)" stroke="none"></circle><circle r="4.473684210526316" cx="329.4117647058824" cy="329.4117647058824" fill="hsla(261, 12%, 63%, 1.00)" stroke="none"></circle><circle r="4.473684210526316" cx="376.47058823529414" cy="329.4117647058824" fill="hsla(261, 12%, 63%, 1.00)" stroke="none"></circle><circle r="4.473684210526316" cx="423.5294117647059" cy="329.4117647058824" fill="hsla(261, 12%, 63%, 1.00)" stroke="none"></circle><circle r="4.473684210526316" cx="470.5882352941177" cy="329.4117647058824" fill="hsla(261, 12%, 63%, 1.00)" stroke="none"></circle><circle r="4.473684210526316" cx="517.6470588235295" cy="329.4117647058824" fill="none"></circle><circle r="4.473684210526316" cx="564.7058823529412" cy="329.4117647058824" fill="hsla(261, 12%, 63%, 1.00)" stroke="none"></circle><circle r="4.473684210526316" cx="611.7647058823529" cy="329.4117647058824" fill="none"></circle><circle r="4.473684210526316" cx="658.8235294117646" cy="329.4117647058824" fill="hsla(261, 12%, 63%, 1.00)" stroke="none"></circle><circle r="4.473684210526316" cx="705.8823529411764" cy="329.4117647058824" fill="hsla(261, 12%, 63%, 1.00)" stroke="none"></circle><circle r="4.473684210526316" cx="752.9411764705881" cy="329.4117647058824" fill="none"></circle><circle r="4.473684210526316" cx="799.9999999999998" cy="329.4117647058824" fill="hsla(261, 12%, 63%, 1.00)" stroke="none"></circle><circle r="4.473684210526316" cx="0" cy="376.47058823529414" fill="hsla(261, 12%, 63%, 1.00)" stroke="none"></circle><circle r="4.473684210526316" cx="47.05882352941177" cy="376.47058823529414" fill="hsla(261, 12%, 63%, 1.00)" stroke="none"></circle><circle r="4.473684210526316" cx="94.11764705882354" cy="376.47058823529414" fill="hsla(261, 12%, 63%, 1.00)" stroke="none"></circle><circle r="4.473684210526316" cx="141.1764705882353" cy="376.47058823529414" fill="hsla(261, 12%, 63%, 1.00)" stroke="none"></circle><circle r="4.473684210526316" cx="188.23529411764707" cy="376.47058823529414" fill="none"></circle><circle r="4.473684210526316" cx="235.29411764705884" cy="376.47058823529414" fill="hsla(261, 12%, 63%, 1.00)" stroke="none"></circle><circle r="4.473684210526316" cx="282.3529411764706" cy="376.47058823529414" fill="none"></circle><circle r="4.473684210526316" cx="329.4117647058824" cy="376.47058823529414" fill="hsla(261, 12%, 63%, 1.00)" stroke="none"></circle><circle r="4.473684210526316" cx="376.47058823529414" cy="376.47058823529414" fill="hsla(261, 12%, 63%, 1.00)" stroke="none"></circle><circle r="4.473684210526316" cx="423.5294117647059" cy="376.47058823529414" fill="hsla(261, 12%, 63%, 1.00)" stroke="none"></circle><circle r="4.473684210526316" cx="470.5882352941177" cy="376.47058823529414" fill="hsla(261, 12%, 63%, 1.00)" stroke="none"></circle><circle r="4.473684210526316" cx="517.6470588235295" cy="376.47058823529414" fill="none"></circle><circle r="4.473684210526316" cx="564.7058823529412" cy="376.47058823529414" fill="none"></circle><circle r="4.473684210526316" cx="611.7647058823529" cy="376.47058823529414" fill="hsla(261, 12%, 63%, 1.00)" stroke="none"></circle><circle r="4.473684210526316" cx="658.8235294117646" cy="376.47058823529414" fill="none"></circle><circle r="4.473684210526316" cx="705.8823529411764" cy="376.47058823529414" fill="hsla(261, 12%, 63%, 1.00)" stroke="none"></circle><circle r="4.473684210526316" cx="752.9411764705881" cy="376.47058823529414" fill="none"></circle><circle r="4.473684210526316" cx="799.9999999999998" cy="376.47058823529414" fill="hsla(261, 12%, 63%, 1.00)" stroke="none"></circle><circle r="4.473684210526316" cx="0" cy="423.5294117647059" fill="hsla(261, 12%, 63%, 1.00)" stroke="none"></circle><circle r="4.473684210526316" cx="47.05882352941177" cy="423.5294117647059" fill="hsla(261, 12%, 63%, 1.00)" stroke="none"></circle><circle r="4.473684210526316" cx="94.11764705882354" cy="423.5294117647059" fill="hsla(261, 12%, 63%, 1.00)" stroke="none"></circle><circle r="4.473684210526316" cx="141.1764705882353" cy="423.5294117647059" fill="hsla(261, 12%, 63%, 1.00)" stroke="none"></circle><circle r="4.473684210526316" cx="188.23529411764707" cy="423.5294117647059" fill="hsla(261, 12%, 63%, 1.00)" stroke="none"></circle><circle r="4.473684210526316" cx="235.29411764705884" cy="423.5294117647059" fill="none"></circle><circle r="4.473684210526316" cx="282.3529411764706" cy="423.5294117647059" fill="hsla(261, 12%, 63%, 1.00)" stroke="none"></circle><circle r="4.473684210526316" cx="329.4117647058824" cy="423.5294117647059" fill="hsla(261, 12%, 63%, 1.00)" stroke="none"></circle><circle r="4.473684210526316" cx="376.47058823529414" cy="423.5294117647059" fill="hsla(261, 12%, 63%, 1.00)" stroke="none"></circle><circle r="4.473684210526316" cx="423.5294117647059" cy="423.5294117647059" fill="hsla(261, 12%, 63%, 1.00)" stroke="none"></circle><circle r="4.473684210526316" cx="470.5882352941177" cy="423.5294117647059" fill="hsla(261, 12%, 63%, 1.00)" stroke="none"></circle><circle r="4.473684210526316" cx="517.6470588235295" cy="423.5294117647059" fill="hsla(261, 12%, 63%, 1.00)" stroke="none"></circle><circle r="4.473684210526316" cx="564.7058823529412" cy="423.5294117647059" fill="hsla(261, 12%, 63%, 1.00)" stroke="none"></circle><circle r="4.473684210526316" cx="611.7647058823529" cy="423.5294117647059" fill="none"></circle><circle r="4.473684210526316" cx="658.8235294117646" cy="423.5294117647059" fill="none"></circle><circle r="4.473684210526316" cx="705.8823529411764" cy="423.5294117647059" fill="hsla(261, 12%, 63%, 1.00)" stroke="none"></circle><circle r="4.473684210526316" cx="752.9411764705881" cy="423.5294117647059" fill="hsla(261, 12%, 63%, 1.00)" stroke="none"></circle><circle r="4.473684210526316" cx="799.9999999999998" cy="423.5294117647059" fill="hsla(261, 12%, 63%, 1.00)" stroke="none"></circle><circle r="4.473684210526316" cx="0" cy="470.5882352941177" fill="hsla(261, 12%, 63%, 1.00)" stroke="none"></circle><circle r="4.473684210526316" cx="47.05882352941177" cy="470.5882352941177" fill="hsla(261, 12%, 63%, 1.00)" stroke="none"></circle><circle r="4.473684210526316" cx="94.11764705882354" cy="470.5882352941177" fill="hsla(261, 12%, 63%, 1.00)" stroke="none"></circle><circle r="4.473684210526316" cx="141.1764705882353" cy="470.5882352941177" fill="hsla(261, 12%, 63%, 1.00)" stroke="none"></circle><circle r="4.473684210526316" cx="188.23529411764707" cy="470.5882352941177" fill="hsla(261, 12%, 63%, 1.00)" stroke="none"></circle><circle r="4.473684210526316" cx="235.29411764705884" cy="470.5882352941177" fill="hsla(261, 12%, 63%, 1.00)" stroke="none"></circle><circle r="4.473684210526316" cx="282.3529411764706" cy="470.5882352941177" fill="hsla(261, 12%, 63%, 1.00)" stroke="none"></circle><circle r="4.473684210526316" cx="329.4117647058824" cy="470.5882352941177" fill="hsla(261, 12%, 63%, 1.00)" stroke="none"></circle><circle r="4.473684210526316" cx="376.47058823529414" cy="470.5882352941177" fill="none"></circle><circle r="4.473684210526316" cx="423.5294117647059" cy="470.5882352941177" fill="hsla(261, 12%, 63%, 1.00)" stroke="none"></circle><circle r="4.473684210526316" cx="470.5882352941177" cy="470.5882352941177" fill="none"></circle><circle r="4.473684210526316" cx="517.6470588235295" cy="470.5882352941177" fill="hsla(261, 12%, 63%, 1.00)" stroke="none"></circle><circle r="4.473684210526316" cx="564.7058823529412" cy="470.5882352941177" fill="none"></circle><circle r="4.473684210526316" cx="611.7647058823529" cy="470.5882352941177" fill="none"></circle><circle r="4.473684210526316" cx="658.8235294117646" cy="470.5882352941177" fill="none"></circle><circle r="4.473684210526316" cx="705.8823529411764" cy="470.5882352941177" fill="none"></circle><circle r="4.473684210526316" cx="752.9411764705881" cy="470.5882352941177" fill="hsla(261, 12%, 63%, 1.00)" stroke="none"></circle><circle r="4.473684210526316" cx="799.9999999999998" cy="470.5882352941177" fill="hsla(261, 12%, 63%, 1.00)" stroke="none"></circle><circle r="4.473684210526316" cx="0" cy="517.6470588235295" fill="hsla(261, 12%, 63%, 1.00)" stroke="none"></circle><circle r="4.473684210526316" cx="47.05882352941177" cy="517.6470588235295" fill="hsla(261, 12%, 63%, 1.00)" stroke="none"></circle><circle r="4.473684210526316" cx="94.11764705882354" cy="517.6470588235295" fill="hsla(261, 12%, 63%, 1.00)" stroke="none"></circle><circle r="4.473684210526316" cx="141.1764705882353" cy="517.6470588235295" fill="hsla(261, 12%, 63%, 1.00)" stroke="none"></circle><circle r="4.473684210526316" cx="188.23529411764707" cy="517.6470588235295" fill="none"></circle><circle r="4.473684210526316" cx="235.29411764705884" cy="517.6470588235295" fill="hsla(261, 12%, 63%, 1.00)" stroke="none"></circle><circle r="4.473684210526316" cx="282.3529411764706" cy="517.6470588235295" fill="hsla(261, 12%, 63%, 1.00)" stroke="none"></circle><circle r="4.473684210526316" cx="329.4117647058824" cy="517.6470588235295" fill="hsla(261, 12%, 63%, 1.00)" stroke="none"></circle><circle r="4.473684210526316" cx="376.47058823529414" cy="517.6470588235295" fill="hsla(261, 12%, 63%, 1.00)" stroke="none"></circle><circle r="4.473684210526316" cx="423.5294117647059" cy="517.6470588235295" fill="hsla(261, 12%, 63%, 1.00)" stroke="none"></circle><circle r="4.473684210526316" cx="470.5882352941177" cy="517.6470588235295" fill="hsla(261, 12%, 63%, 1.00)" stroke="none"></circle><circle r="4.473684210526316" cx="517.6470588235295" cy="517.6470588235295" fill="hsla(261, 12%, 63%, 1.00)" stroke="none"></circle><circle r="4.473684210526316" cx="564.7058823529412" cy="517.6470588235295" fill="none"></circle><circle r="4.473684210526316" cx="611.7647058823529" cy="517.6470588235295" fill="hsla(261, 12%, 63%, 1.00)" stroke="none"></circle><circle r="4.473684210526316" cx="658.8235294117646" cy="517.6470588235295" fill="none"></circle><circle r="4.473684210526316" cx="705.8823529411764" cy="517.6470588235295" fill="none"></circle><circle r="4.473684210526316" cx="752.9411764705881" cy="517.6470588235295" fill="hsla(261, 12%, 63%, 1.00)" stroke="none"></circle><circle r="4.473684210526316" cx="799.9999999999998" cy="517.6470588235295" fill="hsla(261, 12%, 63%, 1.00)" stroke="none"></circle><circle r="4.473684210526316" cx="0" cy="564.7058823529412" fill="hsla(261, 12%, 63%, 1.00)" stroke="none"></circle><circle r="4.473684210526316" cx="47.05882352941177" cy="564.7058823529412" fill="none"></circle><circle r="4.473684210526316" cx="94.11764705882354" cy="564.7058823529412" fill="hsla(261, 12%, 63%, 1.00)" stroke="none"></circle><circle r="4.473684210526316" cx="141.1764705882353" cy="564.7058823529412" fill="hsla(261, 12%, 63%, 1.00)" stroke="none"></circle><circle r="4.473684210526316" cx="188.23529411764707" cy="564.7058823529412" fill="hsla(261, 12%, 63%, 1.00)" stroke="none"></circle><circle r="4.473684210526316" cx="235.29411764705884" cy="564.7058823529412" fill="hsla(261, 12%, 63%, 1.00)" stroke="none"></circle><circle r="4.473684210526316" cx="282.3529411764706" cy="564.7058823529412" fill="none"></circle><circle r="4.473684210526316" cx="329.4117647058824" cy="564.7058823529412" fill="hsla(261, 12%, 63%, 1.00)" stroke="none"></circle><circle r="4.473684210526316" cx="376.47058823529414" cy="564.7058823529412" fill="hsla(261, 12%, 63%, 1.00)" stroke="none"></circle><circle r="4.473684210526316" cx="423.5294117647059" cy="564.7058823529412" fill="hsla(261, 12%, 63%, 1.00)" stroke="none"></circle><circle r="4.473684210526316" cx="470.5882352941177" cy="564.7058823529412" fill="hsla(261, 12%, 63%, 1.00)" stroke="none"></circle><circle r="4.473684210526316" cx="517.6470588235295" cy="564.7058823529412" fill="hsla(261, 12%, 63%, 1.00)" stroke="none"></circle><circle r="4.473684210526316" cx="564.7058823529412" cy="564.7058823529412" fill="none"></circle><circle r="4.473684210526316" cx="611.7647058823529" cy="564.7058823529412" fill="hsla(261, 12%, 63%, 1.00)" stroke="none"></circle><circle r="4.473684210526316" cx="658.8235294117646" cy="564.7058823529412" fill="hsla(261, 12%, 63%, 1.00)" stroke="none"></circle><circle r="4.473684210526316" cx="705.8823529411764" cy="564.7058823529412" fill="none"></circle><circle r="4.473684210526316" cx="752.9411764705881" cy="564.7058823529412" fill="hsla(261, 12%, 63%, 1.00)" stroke="none"></circle><circle r="4.473684210526316" cx="799.9999999999998" cy="564.7058823529412" fill="hsla(261, 12%, 63%, 1.00)" stroke="none"></circle><circle r="4.473684210526316" cx="0" cy="611.7647058823529" fill="hsla(261, 12%, 63%, 1.00)" stroke="none"></circle><circle r="4.473684210526316" cx="47.05882352941177" cy="611.7647058823529" fill="none"></circle><circle r="4.473684210526316" cx="94.11764705882354" cy="611.7647058823529" fill="hsla(261, 12%, 63%, 1.00)" stroke="none"></circle><circle r="4.473684210526316" cx="141.1764705882353" cy="611.7647058823529" fill="hsla(261, 12%, 63%, 1.00)" stroke="none"></circle><circle r="4.473684210526316" cx="188.23529411764707" cy="611.7647058823529" fill="hsla(261, 12%, 63%, 1.00)" stroke="none"></circle><circle r="4.473684210526316" cx="235.29411764705884" cy="611.7647058823529" fill="hsla(261, 12%, 63%, 1.00)" stroke="none"></circle><circle r="4.473684210526316" cx="282.3529411764706" cy="611.7647058823529" fill="hsla(261, 12%, 63%, 1.00)" stroke="none"></circle><circle r="4.473684210526316" cx="329.4117647058824" cy="611.7647058823529" fill="none"></circle><circle r="4.473684210526316" cx="376.47058823529414" cy="611.7647058823529" fill="hsla(261, 12%, 63%, 1.00)" stroke="none"></circle><circle r="4.473684210526316" cx="423.5294117647059" cy="611.7647058823529" fill="none"></circle><circle r="4.473684210526316" cx="470.5882352941177" cy="611.7647058823529" fill="hsla(261, 12%, 63%, 1.00)" stroke="none"></circle><circle r="4.473684210526316" cx="517.6470588235295" cy="611.7647058823529" fill="hsla(261, 12%, 63%, 1.00)" stroke="none"></circle><circle r="4.473684210526316" cx="564.7058823529412" cy="611.7647058823529" fill="hsla(261, 12%, 63%, 1.00)" stroke="none"></circle><circle r="4.473684210526316" cx="611.7647058823529" cy="611.7647058823529" fill="hsla(261, 12%, 63%, 1.00)" stroke="none"></circle><circle r="4.473684210526316" cx="658.8235294117646" cy="611.7647058823529" fill="hsla(261, 12%, 63%, 1.00)" stroke="none"></circle><circle r="4.473684210526316" cx="705.8823529411764" cy="611.7647058823529" fill="hsla(261, 12%, 63%, 1.00)" stroke="none"></circle><circle r="4.473684210526316" cx="752.9411764705881" cy="611.7647058823529" fill="hsla(261, 12%, 63%, 1.00)" stroke="none"></circle><circle r="4.473684210526316" cx="799.9999999999998" cy="611.7647058823529" fill="hsla(261, 12%, 63%, 1.00)" stroke="none"></circle><circle r="4.473684210526316" cx="0" cy="658.8235294117646" fill="hsla(261, 12%, 63%, 1.00)" stroke="none"></circle><circle r="4.473684210526316" cx="47.05882352941177" cy="658.8235294117646" fill="hsla(261, 12%, 63%, 1.00)" stroke="none"></circle><circle r="4.473684210526316" cx="94.11764705882354" cy="658.8235294117646" fill="hsla(261, 12%, 63%, 1.00)" stroke="none"></circle><circle r="4.473684210526316" cx="141.1764705882353" cy="658.8235294117646" fill="hsla(261, 12%, 63%, 1.00)" stroke="none"></circle><circle r="4.473684210526316" cx="188.23529411764707" cy="658.8235294117646" fill="hsla(261, 12%, 63%, 1.00)" stroke="none"></circle><circle r="4.473684210526316" cx="235.29411764705884" cy="658.8235294117646" fill="hsla(261, 12%, 63%, 1.00)" stroke="none"></circle><circle r="4.473684210526316" cx="282.3529411764706" cy="658.8235294117646" fill="hsla(261, 12%, 63%, 1.00)" stroke="none"></circle><circle r="4.473684210526316" cx="329.4117647058824" cy="658.8235294117646" fill="hsla(261, 12%, 63%, 1.00)" stroke="none"></circle><circle r="4.473684210526316" cx="376.47058823529414" cy="658.8235294117646" fill="hsla(261, 12%, 63%, 1.00)" stroke="none"></circle><circle r="4.473684210526316" cx="423.5294117647059" cy="658.8235294117646" fill="hsla(261, 12%, 63%, 1.00)" stroke="none"></circle><circle r="4.473684210526316" cx="470.5882352941177" cy="658.8235294117646" fill="hsla(261, 12%, 63%, 1.00)" stroke="none"></circle><circle r="4.473684210526316" cx="517.6470588235295" cy="658.8235294117646" fill="hsla(261, 12%, 63%, 1.00)" stroke="none"></circle><circle r="4.473684210526316" cx="564.7058823529412" cy="658.8235294117646" fill="hsla(261, 12%, 63%, 1.00)" stroke="none"></circle><circle r="4.473684210526316" cx="611.7647058823529" cy="658.8235294117646" fill="none"></circle><circle r="4.473684210526316" cx="658.8235294117646" cy="658.8235294117646" fill="hsla(261, 12%, 63%, 1.00)" stroke="none"></circle><circle r="4.473684210526316" cx="705.8823529411764" cy="658.8235294117646" fill="hsla(261, 12%, 63%, 1.00)" stroke="none"></circle><circle r="4.473684210526316" cx="752.9411764705881" cy="658.8235294117646" fill="hsla(261, 12%, 63%, 1.00)" stroke="none"></circle><circle r="4.473684210526316" cx="799.9999999999998" cy="658.8235294117646" fill="hsla(261, 12%, 63%, 1.00)" stroke="none"></circle><circle r="4.473684210526316" cx="0" cy="705.8823529411764" fill="hsla(261, 12%, 63%, 1.00)" stroke="none"></circle><circle r="4.473684210526316" cx="47.05882352941177" cy="705.8823529411764" fill="none"></circle><circle r="4.473684210526316" cx="94.11764705882354" cy="705.8823529411764" fill="hsla(261, 12%, 63%, 1.00)" stroke="none"></circle><circle r="4.473684210526316" cx="141.1764705882353" cy="705.8823529411764" fill="hsla(261, 12%, 63%, 1.00)" stroke="none"></circle><circle r="4.473684210526316" cx="188.23529411764707" cy="705.8823529411764" fill="hsla(261, 12%, 63%, 1.00)" stroke="none"></circle><circle r="4.473684210526316" cx="235.29411764705884" cy="705.8823529411764" fill="hsla(261, 12%, 63%, 1.00)" stroke="none"></circle><circle r="4.473684210526316" cx="282.3529411764706" cy="705.8823529411764" fill="none"></circle><circle r="4.473684210526316" cx="329.4117647058824" cy="705.8823529411764" fill="hsla(261, 12%, 63%, 1.00)" stroke="none"></circle><circle r="4.473684210526316" cx="376.47058823529414" cy="705.8823529411764" fill="hsla(261, 12%, 63%, 1.00)" stroke="none"></circle><circle r="4.473684210526316" cx="423.5294117647059" cy="705.8823529411764" fill="hsla(261, 12%, 63%, 1.00)" stroke="none"></circle><circle r="4.473684210526316" cx="470.5882352941177" cy="705.8823529411764" fill="hsla(261, 12%, 63%, 1.00)" stroke="none"></circle><circle r="4.473684210526316" cx="517.6470588235295" cy="705.8823529411764" fill="hsla(261, 12%, 63%, 1.00)" stroke="none"></circle><circle r="4.473684210526316" cx="564.7058823529412" cy="705.8823529411764" fill="none"></circle><circle r="4.473684210526316" cx="611.7647058823529" cy="705.8823529411764" fill="hsla(261, 12%, 63%, 1.00)" stroke="none"></circle><circle r="4.473684210526316" cx="658.8235294117646" cy="705.8823529411764" fill="hsla(261, 12%, 63%, 1.00)" stroke="none"></circle><circle r="4.473684210526316" cx="705.8823529411764" cy="705.8823529411764" fill="hsla(261, 12%, 63%, 1.00)" stroke="none"></circle><circle r="4.473684210526316" cx="752.9411764705881" cy="705.8823529411764" fill="none"></circle><circle r="4.473684210526316" cx="799.9999999999998" cy="705.8823529411764" fill="hsla(261, 12%, 63%, 1.00)" stroke="none"></circle><circle r="4.473684210526316" cx="0" cy="752.9411764705881" fill="hsla(261, 12%, 63%, 1.00)" stroke="none"></circle><circle r="4.473684210526316" cx="47.05882352941177" cy="752.9411764705881" fill="none"></circle><circle r="4.473684210526316" cx="94.11764705882354" cy="752.9411764705881" fill="none"></circle><circle r="4.473684210526316" cx="141.1764705882353" cy="752.9411764705881" fill="hsla(261, 12%, 63%, 1.00)" stroke="none"></circle><circle r="4.473684210526316" cx="188.23529411764707" cy="752.9411764705881" fill="none"></circle><circle r="4.473684210526316" cx="235.29411764705884" cy="752.9411764705881" fill="hsla(261, 12%, 63%, 1.00)" stroke="none"></circle><circle r="4.473684210526316" cx="282.3529411764706" cy="752.9411764705881" fill="hsla(261, 12%, 63%, 1.00)" stroke="none"></circle><circle r="4.473684210526316" cx="329.4117647058824" cy="752.9411764705881" fill="hsla(261, 12%, 63%, 1.00)" stroke="none"></circle><circle r="4.473684210526316" cx="376.47058823529414" cy="752.9411764705881" fill="none"></circle><circle r="4.473684210526316" cx="423.5294117647059" cy="752.9411764705881" fill="hsla(261, 12%, 63%, 1.00)" stroke="none"></circle><circle r="4.473684210526316" cx="470.5882352941177" cy="752.9411764705881" fill="hsla(261, 12%, 63%, 1.00)" stroke="none"></circle><circle r="4.473684210526316" cx="517.6470588235295" cy="752.9411764705881" fill="hsla(261, 12%, 63%, 1.00)" stroke="none"></circle><circle r="4.473684210526316" cx="564.7058823529412" cy="752.9411764705881" fill="none"></circle><circle r="4.473684210526316" cx="611.7647058823529" cy="752.9411764705881" fill="none"></circle><circle r="4.473684210526316" cx="658.8235294117646" cy="752.9411764705881" fill="hsla(261, 12%, 63%, 1.00)" stroke="none"></circle><circle r="4.473684210526316" cx="705.8823529411764" cy="752.9411764705881" fill="hsla(261, 12%, 63%, 1.00)" stroke="none"></circle><circle r="4.473684210526316" cx="752.9411764705881" cy="752.9411764705881" fill="none"></circle><circle r="4.473684210526316" cx="799.9999999999998" cy="752.9411764705881" fill="hsla(261, 12%, 63%, 1.00)" stroke="none"></circle><circle r="4.473684210526316" cx="0" cy="799.9999999999998" fill="hsla(261, 12%, 63%, 1.00)" stroke="none"></circle><circle r="4.473684210526316" cx="47.05882352941177" cy="799.9999999999998" fill="hsla(261, 12%, 63%, 1.00)" stroke="none"></circle><circle r="4.473684210526316" cx="94.11764705882354" cy="799.9999999999998" fill="hsla(261, 12%, 63%, 1.00)" stroke="none"></circle><circle r="4.473684210526316" cx="141.1764705882353" cy="799.9999999999998" fill="hsla(261, 12%, 63%, 1.00)" stroke="none"></circle><circle r="4.473684210526316" cx="188.23529411764707" cy="799.9999999999998" fill="hsla(261, 12%, 63%, 1.00)" stroke="none"></circle><circle r="4.473684210526316" cx="235.29411764705884" cy="799.9999999999998" fill="hsla(261, 12%, 63%, 1.00)" stroke="none"></circle><circle r="4.473684210526316" cx="282.3529411764706" cy="799.9999999999998" fill="hsla(261, 12%, 63%, 1.00)" stroke="none"></circle><circle r="4.473684210526316" cx="329.4117647058824" cy="799.9999999999998" fill="hsla(261, 12%, 63%, 1.00)" stroke="none"></circle><circle r="4.473684210526316" cx="376.47058823529414" cy="799.9999999999998" fill="hsla(261, 12%, 63%, 1.00)" stroke="none"></circle><circle r="4.473684210526316" cx="423.5294117647059" cy="799.9999999999998" fill="hsla(261, 12%, 63%, 1.00)" stroke="none"></circle><circle r="4.473684210526316" cx="470.5882352941177" cy="799.9999999999998" fill="hsla(261, 12%, 63%, 1.00)" stroke="none"></circle><circle r="4.473684210526316" cx="517.6470588235295" cy="799.9999999999998" fill="hsla(261, 12%, 63%, 1.00)" stroke="none"></circle><circle r="4.473684210526316" cx="564.7058823529412" cy="799.9999999999998" fill="hsla(261, 12%, 63%, 1.00)" stroke="none"></circle><circle r="4.473684210526316" cx="611.7647058823529" cy="799.9999999999998" fill="hsla(261, 12%, 63%, 1.00)" stroke="none"></circle><circle r="4.473684210526316" cx="658.8235294117646" cy="799.9999999999998" fill="hsla(261, 12%, 63%, 1.00)" stroke="none"></circle><circle r="4.473684210526316" cx="705.8823529411764" cy="799.9999999999998" fill="hsla(261, 12%, 63%, 1.00)" stroke="none"></circle><circle r="4.473684210526316" cx="752.9411764705881" cy="799.9999999999998" fill="hsla(261, 12%, 63%, 1.00)" stroke="none"></circle><circle r="4.473684210526316" cx="799.9999999999998" cy="799.9999999999998" fill="hsla(261, 12%, 63%, 1.00)" stroke="none"></circle></g></svg>